<svg xmlns="http://www.w3.org/2000/svg" viewBox="0 0 151.28 151.28"><defs><style>.cls-1{fill:#ffffff;}</style></defs><title>Asset 1</title><g id="Layer_2" data-name="Layer 2"><g id="Layer_1-2" data-name="Layer 1"><path class="cls-1" d="M75.64,8.1A67.53,67.53,0,1,1,8.11,75.63,67.52,67.52,0,0,1,75.64,8.1h0m0-8.1a75.64,75.64,0,1,0,75.64,75.64h0A75.72,75.72,0,0,0,75.64,0Z"/><path class="cls-1" d="M141.29,57.73H66.42A3.9,3.9,0,0,1,66,49.94h75.22a3.9,3.9,0,0,1,0,7.79ZM53.73,45.32a8.54,8.54,0,1,0,8.54,8.54h0a8.53,8.53,0,0,0-8.53-8.53h0m0-8.11A16.64,16.64,0,1,1,37.09,53.85,16.64,16.64,0,0,1,53.73,37.21Z"/><path class="cls-1" d="M82.81,102.8H12.42a3.45,3.45,0,0,1,0-6.9H82.85a3.45,3.45,0,1,1,0,6.9Z"/><path class="cls-1" d="M95.42,90.48A8.54,8.54,0,1,1,86.89,99h0a8.55,8.55,0,0,1,8.53-8.54m0-8.1A16.64,16.64,0,1,0,112.06,99,16.64,16.64,0,0,0,95.42,82.38Z"/></g></g></svg>