<svg id="Layer_1" data-name="Layer 1" xmlns="http://www.w3.org/2000/svg" viewBox="0 0 841.89 179.02"><defs><style>.cls-1{fill:#333132;}.cls-2{fill:#63bc47;}</style></defs><title>simonyi_color</title><path class="cls-1" d="M271.62,85.22c-7.75,6.55-18.14,6.65-21.06,6.65-3.82,0-16.13-.18-25.06-9.58a24,24,0,0,1-3.1-4.19l10.11-7c2.83,4.19,8.12,9.65,20,9.65a22.11,22.11,0,0,0,4.73-.45c1.36-.27,7.66-2,7.66-8a6.55,6.55,0,0,0-1.19-3.83c-2.19-2.92-8-3.73-11.21-4.47l-7.66-1.72a39.53,39.53,0,0,1-9.75-3,16.15,16.15,0,0,1-9.21-14.95,19.24,19.24,0,0,1,2.46-9.46c2.91-4.93,9.94-10.57,23-10.57a30.5,30.5,0,0,1,26,13l-9.92,7.38c-2-3.2-6.57-9.57-16.69-9.57-.63,0-8.74-.1-11.39,4.92a5.83,5.83,0,0,0-.72,2.92,5.42,5.42,0,0,0,.81,2.91c1.55,2.64,5.1,3.47,11,4.74L257,52c6.11,1.36,12.85,3.19,17.14,8.2,1.82,2,3.74,4.93,3.74,10.85A17.22,17.22,0,0,1,271.62,85.22Z"/><path class="cls-1" d="M287,37.55v-11h10.85v11Zm0,52.68V44.65h10.85V90.22Z"/><path class="cls-1" d="M367.15,90.22V62.33c0-1.73-.37-8.84-7.66-8.84a9.57,9.57,0,0,0-8.12,4.65c-2.09,3.28-2.19,7-2.19,10.65V90.21H338.34V64.77c0-1-.09-2-.09-3a8.56,8.56,0,0,0-2.46-6.45,7.39,7.39,0,0,0-4.92-1.73,9,9,0,0,0-5.74,2.19c-4.48,3.82-4.56,10.2-4.56,15.31V90.21H309.62V44.65h10.95l.08,5.1a6.92,6.92,0,0,1,1.47-1.63A20.08,20.08,0,0,1,335,43.28a14.19,14.19,0,0,1,12.66,6.93,16.5,16.5,0,0,1,4.2-3.92,17.78,17.78,0,0,1,10.49-3c6.92,0,13.12,3,15,10.11a29.7,29.7,0,0,1,.64,8v28.8Z"/><path class="cls-1" d="M431.87,77.46a22.2,22.2,0,0,1-21.3,14.13,24.48,24.48,0,0,1-10.3-2.09c-4.73-2.11-13.41-8.48-13.41-22.25a27.43,27.43,0,0,1,2-10.2c1.91-4.57,7.75-13.77,21.3-13.77a25.09,25.09,0,0,1,10,2.1c4.91,2.1,13.4,8.2,13.49,21.87A28,28,0,0,1,431.87,77.46ZM410,53.12a12.31,12.31,0,0,0-6.2,1.74c-2.37,1.55-5.56,5.28-5.56,12.12a18.14,18.14,0,0,0,.91,6.2c.73,2.19,3.92,8.39,11.4,8.39,8.28,0,12-7.3,11.76-14.5S418,53.12,410,53.12Z"/><path class="cls-1" d="M471.61,90.22V67a27.55,27.55,0,0,0-.47-7,7.29,7.29,0,0,0-7.56-6,8.66,8.66,0,0,0-5.75,2.1c-3.28,2.73-4.28,6.55-4.28,14.4V90.22h-11V44.65h11V50a21.42,21.42,0,0,1,2-2.36c4.28-4,10.48-4.38,12-4.38,6.75,0,10.65,3.46,12.12,5.56,2.93,4.2,2.64,9.94,2.64,14.59V90.22Z"/><path class="cls-1" d="M519.27,84.39c-1.64,5.65-4,15.31-8.28,18.78-2.83,2.28-5.74,2.73-9.3,2.73a25.24,25.24,0,0,1-6.48-.64V95.8c4.38.54,6.84,0,8.49-1.37a6.85,6.85,0,0,0,1.92-3.28L489.1,44.65h11.76l10.21,34,8.57-34h11.21Z"/><path class="cls-1" d="M537.59,37.55v-11h10.82v11Zm0,52.68V44.65h10.82V90.22Z"/><path class="cls-1" d="M627.55,90.22,610.42,60,599.93,72V90.22H588V25.87h11.94V55.45l25.8-29.58h14.13L618.81,50.12l22.48,40.1Z"/><path class="cls-1" d="M674.13,90.22l-.27-3.55a15.41,15.41,0,0,1-4.19,2.56,21.4,21.4,0,0,1-9.21,2.09c-2.19,0-10.39-.27-14.59-7a13.06,13.06,0,0,1-2-7.3,13.29,13.29,0,0,1,6.2-11.38c3.73-2.56,7.29-3.1,11.48-3.93a83.42,83.42,0,0,0,12.58-3.1,8.67,8.67,0,0,0-.64-3.73c-.91-1.74-3.19-3.11-7.19-3.11-4.2,0-6.84,1.28-8,2.83a6,6,0,0,0-1.18,4L646,58a13.73,13.73,0,0,1,4.92-10.48c2.83-2.37,7.1-4.21,15-4.21,7.48,0,11.84,1.56,14.68,3.56a10.4,10.4,0,0,1,3.27,3.64c1.19,2.37,1.19,5.56,1.19,8.11V82.81c0,3.47.19,4.48,2,7.39Zm0-22.7a28.25,28.25,0,0,1-8.66,2.56c-2.46.45-5.1.54-7.38,1.92a5.34,5.34,0,0,0-2.64,4.55c0,2.74,2,5.38,7.48,5.38,6,0,9.56-3.1,10.56-5.2a8.36,8.36,0,0,0,.64-4.19Zm-4.46-29.58h-8.2L666,25.81h13.49Z"/><path class="cls-1" d="M708.17,63.24a23,23,0,0,0-.82,7.48v19.5H696.77V44.65h10.58v6.47a13.94,13.94,0,0,1,2.73-3.74c3.65-3.55,9.58-3.74,10.84-3.74h.93V54.86C719.53,54.86,710.78,54.86,708.17,63.24Z"/><path class="cls-1" d="M771.4,77.46a22.22,22.22,0,0,1-21.31,14.13A24.46,24.46,0,0,1,739.8,89.5c-4.73-2.11-13.4-8.48-13.4-22.25a27.45,27.45,0,0,1,2-10.2c1.92-4.57,7.75-13.77,21.3-13.77a25.1,25.1,0,0,1,10,2.1c4.92,2.1,13.39,8.2,13.49,21.87A28,28,0,0,1,771.4,77.46ZM749.51,53.12a12.34,12.34,0,0,0-6.2,1.74c-2.36,1.55-5.56,5.28-5.56,12.12a18.14,18.14,0,0,0,.91,6.2c.74,2.19,3.92,8.39,11.4,8.39,8.28,0,12-7.3,11.76-14.5S757.54,53.12,749.51,53.12Z"/><path class="cls-1" d="M782.24,90.22V25.87h11.13V90.22Z"/><path class="cls-1" d="M830.36,84.39c-1.64,5.65-4,15.31-8.28,18.78-2.83,2.28-5.74,2.73-9.3,2.73a25.12,25.12,0,0,1-6.47-.64V95.8c4.37.54,6.84,0,8.48-1.37a6.77,6.77,0,0,0,1.92-3.28l-16.52-46.5H812l10.21,34,8.57-34h11.16Z"/><path class="cls-1" d="M248.52,150.22c-3.88,3.29-9.08,3.34-10.55,3.34-1.92,0-8.08-.1-12.56-4.8a12.24,12.24,0,0,1-1.55-2.1l5.07-3.55c1.42,2.09,4.07,4.84,10,4.84a11,11,0,0,0,2.36-.23c.69-.14,3.84-1,3.84-4a3.35,3.35,0,0,0-.59-1.92c-1.1-1.46-4-1.87-5.62-2.23l-3.84-.87a19.94,19.94,0,0,1-4.89-1.51,8.09,8.09,0,0,1-4.6-7.49,9.66,9.66,0,0,1,1.18-4.74c1.46-2.46,5-5.3,11.51-5.3a15.29,15.29,0,0,1,13,6.53l-4.92,3.68a9.36,9.36,0,0,0-8.35-4.73c-.32,0-4.38,0-5.71,2.46A3,3,0,0,0,232,129a2.58,2.58,0,0,0,.41,1.46c.77,1.33,2.56,1.74,5.53,2.37l3.32.72c3.07.69,6.44,1.6,8.59,4.12a7.32,7.32,0,0,1,1.87,5.43A8.62,8.62,0,0,1,248.52,150.22Z"/><path class="cls-1" d="M274.5,152.73v-4.92l17.63-21.93H276v-5.39h23.67v5.12L282.74,147.3h16.94v5.43Z"/><path class="cls-1" d="M343.74,152.73l-1.88-6.31h-12.1l-1.87,6.3h-6.48l10.91-32.24h6.85l11,32.24Zm-7.9-26.43-4.48,14.84h8.9Z"/><path class="cls-1" d="M394.25,152.73l-8.59-15.16-5.26,6v9.13h-5.92V120.49h5.92v14.8l13-14.8h7.1l-10.65,12.14,11.28,20.12Z"/><path class="cls-1" d="M444.84,152.73l-8.58-15.16-5.26,6v9.13h-6V120.49h6v14.8l12.93-14.8H451l-10.55,12.14,11.28,20.12Z"/><path class="cls-1" d="M500.6,148.94a14.57,14.57,0,0,1-5.48,3.71,16.8,16.8,0,0,1-5.62.91,13.61,13.61,0,0,1-11.05-5,17.39,17.39,0,0,1-4.29-11.92,19.54,19.54,0,0,1,1-6.26,15.23,15.23,0,0,1,25.95-5.61,17.12,17.12,0,0,1,4,11.83A18.19,18.19,0,0,1,500.6,148.94Zm-3.55-19.5a8.47,8.47,0,0,0-7.49-4.25,9.29,9.29,0,0,0-4.11,1c-2.28,1.18-5.12,4.25-5.12,10.28,0,1.19,0,7.17,4.57,10.13a8.7,8.7,0,0,0,4.73,1.38,8.86,8.86,0,0,0,3.69-.78c2.37-1.09,5.48-3.84,5.62-9.91a14.22,14.22,0,0,0-1.86-7.81Z"/><path class="cls-1" d="M531.06,152.73V120.49h6.07v26.76h12.79v5.48Z"/><path class="cls-1" d="M575,152.73V120.49h6.07v26.76h12.79v5.48Z"/><path class="cls-1" d="M618.74,152.73V120.49h22.92v5.39h-17v7.58h15.57v5.21H624.68v8.63h18.13v5.43ZM631,117.35h-4.06l2.37-5.48h6.58Z"/><path class="cls-1" d="M690,152.73V150a12.2,12.2,0,0,1-8.87,3.55,14.45,14.45,0,0,1-10.32-4.08,17.31,17.31,0,0,1-4.73-12.55,19,19,0,0,1,3.8-11.65,15,15,0,0,1,11.83-5.62,15.54,15.54,0,0,1,5.31,1,14.23,14.23,0,0,1,8.28,8.54l-5.75,2.28c-.55-1.55-2.24-6.34-7.86-6.34a8.08,8.08,0,0,0-5.8,2.36c-1.55,1.6-3.19,4.35-3.19,9.33,0,1.32,0,6.16,3.69,9.26a8.1,8.1,0,0,0,5.44,1.83,7.5,7.5,0,0,0,7.26-4.57,9.84,9.84,0,0,0,.68-2.88h-8v-5.29h13.43v17.62Z"/><path class="cls-1" d="M721.89,152.73V120.49h5.92v32.24Z"/><path class="cls-1" d="M780.8,146.16c-1,3.24-4.73,7.4-12.64,7.4-3.79,0-7.58-.91-10.23-3.84a9.38,9.38,0,0,1-2.06-3.48c-.5-1.64-.5-3.14-.5-6.56V120.49h6v19.82a10.42,10.42,0,0,0,.32,3.56c.59,1.91,2.37,3.83,6.63,3.83.76,0,5.2,0,6.53-3.66a11.59,11.59,0,0,0,.4-4.06V120.49h6v18.58C781.36,142.78,781.41,144.33,780.8,146.16Z"/><path class="cls-1" d="M832.73,152.73l.59-26.49-7,26.49h-5.43l-7-26.43.6,26.49h-5.92v-32.3h8.77l6.31,23.93,6.21-23.93h8.72v32.24Z"/><path class="cls-2" d="M89.51,9.59A79.91,79.91,0,1,1,9.6,89.5,79.91,79.91,0,0,1,89.51,9.59h0m0-9.59A89.51,89.51,0,1,0,179,89.51h0A89.6,89.6,0,0,0,89.51,0Z"/><path class="cls-2" d="M167.2,68.32H78.6a4.62,4.62,0,0,1-.47-9.22h89a4.62,4.62,0,0,1,0,9.22ZM63.58,53.63A10.11,10.11,0,1,0,73.69,63.74h0A10.1,10.1,0,0,0,63.6,53.63h0m0-9.6a19.7,19.7,0,1,1-19.69,19.7A19.7,19.7,0,0,1,63.58,44Z"/><path class="cls-2" d="M98,121.65H14.7a4.08,4.08,0,1,1,0-8.16H98a4.08,4.08,0,1,1,0,8.16Z"/><path class="cls-2" d="M112.92,107.07a10.11,10.11,0,1,1-10.09,10.12h0a10.1,10.1,0,0,1,10.09-10.11m0-9.58a19.69,19.69,0,1,0,19.69,19.69A19.68,19.68,0,0,0,112.92,97.49Z"/></svg>